<svg width="61" height="62" viewBox="0 0 61 62" fill="none" xmlns="http://www.w3.org/2000/svg">
<g filter="url(#filter0_di_4_27)">
<path d="M27.0329 3C28.915 3.02051 30.7894 3.23847 32.6279 3.64874C33.0191 3.73605 33.3731 3.94337 33.6407 4.24173C33.9083 4.54009 34.0759 4.91459 34.1203 5.31288L34.5562 9.22838C34.6177 9.7804 34.808 10.3103 35.1117 10.7754C35.4153 11.2404 35.824 11.6277 36.3046 11.9061C36.7853 12.1845 37.3246 12.3461 37.8791 12.3781C38.4336 12.41 38.9879 12.3113 39.4973 12.09L43.0897 10.513C43.4545 10.3524 43.8601 10.309 44.2506 10.389C44.641 10.4689 44.997 10.6681 45.2693 10.9592C47.8641 13.7313 49.7964 17.0558 50.9207 20.6825C51.0386 21.0637 51.0351 21.472 50.9106 21.8511C50.7861 22.2301 50.5468 22.561 50.2258 22.798L47.0411 25.1468C46.5933 25.4757 46.2291 25.9055 45.9781 26.4013C45.7271 26.8971 45.5964 27.445 45.5964 28.0007C45.5964 28.5564 45.7271 29.1043 45.9781 29.6001C46.2291 30.0959 46.5933 30.5256 47.0411 30.8546L50.2284 33.2008C50.5503 33.4376 50.7905 33.7689 50.9154 34.1484C51.0404 34.528 51.0441 34.9371 50.9259 35.3188C49.8011 38.9454 47.8689 42.2698 45.2744 45.0422C45.0028 45.3326 44.6479 45.5317 44.2585 45.612C43.8691 45.6924 43.4644 45.6501 43.1 45.4909L39.4922 43.9088C38.9835 43.6858 38.4293 43.5856 37.8747 43.6165C37.32 43.6473 36.7804 43.8083 36.2996 44.0865C35.8187 44.3646 35.4101 44.752 35.1067 45.2174C34.8034 45.6828 34.6139 46.2131 34.5536 46.7653L34.1203 50.6782C34.0766 51.0722 33.9122 51.4431 33.6497 51.74C33.3871 52.037 33.0392 52.2456 32.6536 52.3373C28.9395 53.2209 25.0699 53.2209 21.3558 52.3373C20.9702 52.2456 20.6223 52.037 20.3597 51.74C20.0972 51.4431 19.9328 51.0722 19.8891 50.6782L19.4583 46.7704C19.3955 46.2196 19.2043 45.6912 18.9001 45.2277C18.596 44.7642 18.1873 44.3785 17.7069 44.1017C17.2266 43.8248 16.688 43.6646 16.1344 43.6337C15.5809 43.6029 15.0278 43.7024 14.5197 43.9242L10.9145 45.5037C10.5498 45.6635 10.1445 45.7061 9.75461 45.6257C9.36467 45.5454 9.00929 45.3459 8.73751 45.055C6.14182 42.2796 4.20952 38.9516 3.08607 35.3214C2.96785 34.9397 2.9715 34.5306 3.09649 34.151C3.22148 33.7714 3.46162 33.4402 3.78353 33.2034L6.9708 30.8546C7.41913 30.526 7.78374 30.0963 8.03506 29.6005C8.28638 29.1047 8.41734 28.5566 8.41734 28.0007C8.41734 27.4448 8.28638 26.8967 8.03506 26.4009C7.78374 25.9051 7.41913 25.4754 6.9708 25.1468L3.78353 22.8031C3.46208 22.566 3.22245 22.2346 3.09792 21.8551C2.97339 21.4755 2.97015 21.0666 3.08864 20.6851C4.21309 17.0584 6.14536 13.7339 8.74007 10.9618C9.01235 10.6707 9.36833 10.4714 9.75879 10.3915C10.1492 10.3116 10.5549 10.3549 10.9196 10.5156L14.5095 12.0926C15.0198 12.3138 15.5749 12.4122 16.1301 12.38C16.6854 12.3477 17.2254 12.1857 17.7067 11.9069C18.1879 11.6281 18.5971 11.2403 18.9014 10.7747C19.2056 10.309 19.3963 9.77855 19.4583 9.22581L19.8942 5.31288C19.9382 4.91378 20.106 4.53846 20.3741 4.23956C20.6422 3.94065 20.9972 3.73316 21.3891 3.64617C23.2277 3.23847 25.1072 3.02308 27.0329 3ZM27.0021 20.3082C24.9619 20.3082 23.0053 21.1186 21.5627 22.5613C20.1201 24.0039 19.3096 25.9605 19.3096 28.0007C19.3096 30.0409 20.1201 31.9975 21.5627 33.4401C23.0053 34.8828 24.9619 35.6932 27.0021 35.6932C29.0423 35.6932 30.9989 34.8828 32.4416 33.4401C33.8842 31.9975 34.6946 30.0409 34.6946 28.0007C34.6946 25.9605 33.8842 24.0039 32.4416 22.5613C30.9989 21.1186 29.0423 20.3082 27.0021 20.3082Z" fill="#94A7B9"/>
</g>
<defs>
<filter id="filter0_di_4_27" x="0" y="0" width="60.012" height="62" filterUnits="userSpaceOnUse" color-interpolation-filters="sRGB">
<feFlood flood-opacity="0" result="BackgroundImageFix"/>
<feColorMatrix in="SourceAlpha" type="matrix" values="0 0 0 0 0 0 0 0 0 0 0 0 0 0 0 0 0 0 127 0" result="hardAlpha"/>
<feOffset dx="3" dy="3"/>
<feGaussianBlur stdDeviation="3"/>
<feComposite in2="hardAlpha" operator="out"/>
<feColorMatrix type="matrix" values="0 0 0 0 0.584314 0 0 0 0 0.658824 0 0 0 0 0.729412 0 0 0 0.45 0"/>
<feBlend mode="normal" in2="BackgroundImageFix" result="effect1_dropShadow_4_27"/>
<feBlend mode="normal" in="SourceGraphic" in2="effect1_dropShadow_4_27" result="shape"/>
<feColorMatrix in="SourceAlpha" type="matrix" values="0 0 0 0 0 0 0 0 0 0 0 0 0 0 0 0 0 0 127 0" result="hardAlpha"/>
<feOffset dx="5" dy="4"/>
<feGaussianBlur stdDeviation="2"/>
<feComposite in2="hardAlpha" operator="arithmetic" k2="-1" k3="1"/>
<feColorMatrix type="matrix" values="0 0 0 0 0.929412 0 0 0 0 0.945098 0 0 0 0 0.996078 0 0 0 0.27 0"/>
<feBlend mode="normal" in2="shape" result="effect2_innerShadow_4_27"/>
</filter>
</defs>
</svg>
